<svg xmlns="http://www.w3.org/2000/svg" xmlns:xlink="http://www.w3.org/1999/xlink" width="190" height="190"><defs><circle id="b" cx="95" cy="94" r="58"/><filter id="a" width="114.7%" height="114.7%" x="-7.3%" y="-5.6%" filterUnits="objectBoundingBox"><feMorphology in="SourceAlpha" radius=".5" result="shadowSpreadOuter1"/><feOffset dy="2" in="shadowSpreadOuter1" result="shadowOffsetOuter1"/><feGaussianBlur in="shadowOffsetOuter1" result="shadowBlurOuter1" stdDeviation="3"/><feComposite in="shadowBlurOuter1" in2="SourceAlpha" operator="out" result="shadowBlurOuter1"/><feColorMatrix in="shadowBlurOuter1" values="0 0 0 0 0 0 0 0 0 0 0 0 0 0 0 0 0 0 0.5 0"/></filter></defs><g fill="none" fill-rule="evenodd"><circle cx="95" cy="95" r="95" fill="#F8F9FA"/><use fill="#000" filter="url(#a)" xlink:href="#b"/><circle cx="95" cy="94" r="56.5" fill="#FFF" stroke="#DADCE0" stroke-linejoin="square" stroke-width="3"/><g stroke="#DADCE0" stroke-linecap="square" stroke-width="3"><path d="M95 37.5v15M123.25 45.07l-7.5 12.99M143.794 65.613l-12.99 7.5M123.113 142.795l-7.5-12.99M74.113 57.923l-7.5-12.99M58.923 114.613l-12.99 7.5M143.93 122.25l-12.99-7.5M59.06 73.25l-12.99-7.5M74.25 129.94l-7.5 12.99M151.5 94h-15M53.5 94h-15M95 135.5v15"/></g><path d="M130 94c0-8.34-2.924-16.223-8.173-22.48C115.214 63.636 105.488 59 95 59a34.828 34.828 0 0 0-21.133 7.098C65.193 72.678 60 82.905 60 94c0 19.33 15.67 35 35 35 8.808 0 17.1-3.262 23.494-9.057C125.774 113.347 130 104.017 130 94z"/><circle cx="95" cy="94" r="5" fill="#80868B"/><path stroke="#80868B" stroke-linecap="square" stroke-width="5" d="M95 52.5v42M74.055 81.915L95 94.5"/></g></svg>