<svg height="190" width="190" xmlns="http://www.w3.org/2000/svg" xmlns:xlink="http://www.w3.org/1999/xlink"><defs><rect id="a" height="144" rx="8" width="75" x="60" y="21"/><filter id="b" height="111.8%" width="122.7%" x="-11.3%" y="-4.5%"><feMorphology in="SourceAlpha" radius=".5" result="shadowSpreadOuter1"/><feOffset dy="2" in="shadowSpreadOuter1" result="shadowOffsetOuter1"/><feGaussianBlur in="shadowOffsetOuter1" result="shadowBlurOuter1" stdDeviation="3"/><feColorMatrix in="shadowBlurOuter1" values="0 0 0 0 0 0 0 0 0 0 0 0 0 0 0 0 0 0 0.5 0"/></filter><path id="c" d="m98 52.5h57v48h-57z"/><filter id="d" height="135.4%" width="129.8%" x="-14.9%" y="-13.5%"><feMorphology in="SourceAlpha" radius=".5" result="shadowSpreadOuter1"/><feOffset dy="2" in="shadowSpreadOuter1" result="shadowOffsetOuter1"/><feGaussianBlur in="shadowOffsetOuter1" result="shadowBlurOuter1" stdDeviation="3"/><feColorMatrix in="shadowBlurOuter1" values="0 0 0 0 0 0 0 0 0 0 0 0 0 0 0 0 0 0 0.5 0"/></filter></defs><g fill="none" fill-rule="evenodd"><circle cx="95" cy="95" fill="#f8f9fa" r="95"/><use fill="#000" filter="url(#b)" xlink:href="#a"/><use fill="#dadce0" xlink:href="#a"/><path d="m63 37.5h69v110h-69z" fill="#fff"/><path d="m68 107.5h59v6h-59z" fill="#dadce0"/><path d="m63 37.5h69v10h-69z" fill="#4285f4"/><path d="m68 63.5h25v6h-25zm0 11h25v6h-25zm0 11h25v6h-25zm0 11h25v6h-25zm0 22h59v6h-59zm0 11h59v6h-59z" fill="#dadce0"/><use fill="#000" filter="url(#d)" xlink:href="#c"/><use fill="#fbbc04" xlink:href="#c"/><path d="m127 84.5-9.405 4.944 1.797-10.472-7.609-7.416 10.515-1.528 4.702-9.528 4.702 9.528 10.515 1.528-7.609 7.416 1.797 10.472z" fill="#fff"/></g></svg>
