<svg xmlns="http://www.w3.org/2000/svg" xmlns:xlink="http://www.w3.org/1999/xlink" width="190" height="190"><defs><rect id="b" width="145" height="96" x="23" y="46" rx="4"/><filter id="a" width="111.7%" height="117.7%" x="-5.9%" y="-6.8%" filterUnits="objectBoundingBox"><feMorphology in="SourceAlpha" radius=".5" result="shadowSpreadOuter1"/><feOffset dy="2" in="shadowSpreadOuter1" result="shadowOffsetOuter1"/><feGaussianBlur in="shadowOffsetOuter1" result="shadowBlurOuter1" stdDeviation="3"/><feComposite in="shadowBlurOuter1" in2="SourceAlpha" operator="out" result="shadowBlurOuter1"/><feColorMatrix in="shadowBlurOuter1" values="0 0 0 0 0 0 0 0 0 0 0 0 0 0 0 0 0 0 0.5 0"/></filter></defs><g fill="none" fill-rule="evenodd"><circle cx="95" cy="95" r="95" fill="#F8F9FA"/><use fill="#000" filter="url(#a)" xlink:href="#b"/><rect width="142" height="93" x="24.5" y="47.5" fill="#FFF" stroke="#DADCE0" stroke-linejoin="square" stroke-width="3" rx="4"/><rect width="145" height="13" x="23" y="46" fill="#DADCE0" rx="4"/><path fill="#DADCE0" d="M29 96h46v8H29zM29 84h91v8H29zM29 76h10v3H29zM44 76h10v3H44zM58 76h10v3H58zM29 109h91v5H29zM29 119h91v5H29zM29 129h91v5H29z"/><path fill="#34A853" d="M125 85h38v48h-38zM29 63h134v10H29z"/><circle cx="29.5" cy="53.5" r="2.5" fill="#FFF"/><circle cx="38.5" cy="53.5" r="2.5" fill="#FFF"/><circle cx="48.5" cy="53.5" r="2.5" fill="#FFF"/></g></svg>
